<?xml version="1.0" encoding="UTF-8"?>
<svg width="24px" height="24px" viewBox="0 0 24 24" version="1.1" xmlns="http://www.w3.org/2000/svg">
    <title>电动共享单车图标</title>
    <g id="电动单车图标" stroke="none" stroke-width="1" fill="none" fill-rule="evenodd">
        <circle id="背景" fill="#409EFF" cx="12" cy="12" r="11"></circle>
        <path d="M12,2 C17.5228,2 22,6.47715 22,12 C22,17.5228 17.5228,22 12,22 C6.47715,22 2,17.5228 2,12 C2,6.47715 6.47715,2 12,2 Z M12,4 C7.58172,4 4,7.58172 4,12 C4,16.4183 7.58172,20 12,20 C16.4183,20 20,16.4183 20,12 C20,7.58172 16.4183,4 12,4 Z" id="圆环" fill="#FFFFFF" fill-rule="nonzero"></path>
        <path d="M15,8 L17,8 L17,10 L15,10 L15,8 Z M7,8 L9,8 L9,10 L7,10 L7,8 Z M8,15 C9.10457,15 10,14.1046 10,13 C10,11.8954 9.10457,11 8,11 C6.89543,11 6,11.8954 6,13 C6,14.1046 6.89543,15 8,15 Z M16,15 C17.1046,15 18,14.1046 18,13 C18,11.8954 17.1046,11 16,11 C14.8954,11 14,11.8954 14,13 C14,14.1046 14.8954,15 16,15 Z M8,14 C7.44772,14 7,13.5523 7,13 C7,12.4477 7.44772,12 8,12 C8.55228,12 9,12.4477 9,13 C9,13.5523 8.55228,14 8,14 Z M16,14 C15.4477,14 15,13.5523 15,13 C15,12.4477 15.4477,12 16,12 C16.5523,12 17,12.4477 17,13 C17,13.5523 16.5523,14 16,14 Z M9,9 L15,9 L14,13 L10,13 L9,9 Z" id="单车" fill="#FFFFFF"></path>
        <path d="M13,5 L15,5 L12,9 L14,9 L11,14 L12,11 L10,11 L13,5 Z" id="闪电" fill="#FFFFFF"></path>
    </g>
</svg> 