<?xml version="1.0" encoding="UTF-8" standalone="no"?>
<svg
   width="400"
   height="400"
   viewBox="0 0 400 400"
   version="1.1"
   xmlns="http://www.w3.org/2000/svg">
  <g>
    <circle cx="180" cy="120" r="25" fill="#2c3e50" />
    <circle cx="210" cy="100" r="10" fill="#2c3e50" />
    <circle cx="150" cy="150" r="40" fill="#7f8c8d" />
    <circle cx="250" cy="120" r="35" fill="#e67e22" />
    <circle cx="300" cy="130" r="15" fill="#f1c40f" />
    <circle cx="180" cy="180" r="10" fill="#2c3e50" />
    <circle cx="120" cy="230" r="30" fill="#f1c40f" />
    <circle cx="340" cy="180" r="25" fill="#e67e22" />
    <circle cx="340" cy="140" r="8" fill="#2c3e50" />
    <circle cx="370" cy="160" r="5" fill="#2c3e50" />
    <circle cx="330" cy="260" r="20" fill="#e74c3c" />
    <circle cx="300" cy="250" r="5" fill="#2c3e50" />
    <circle cx="380" cy="230" r="10" fill="#ecf0f1" />
    <circle cx="170" cy="300" r="40" fill="#3498db" opacity="0.3" />
    <circle cx="250" cy="280" r="50" fill="#2ecc71" opacity="0.3" />
    
    <path d="M190,200 Q220,150 250,170 Q270,180 280,160 Q300,120 320,180" stroke="#2c3e50" stroke-width="10" fill="none" />
    <path d="M160,200 Q130,150 150,170 Q170,180 180,160 Q200,120 220,150" stroke="#2c3e50" stroke-width="10" fill="none" />
    
    <path d="M170,240 Q200,200 220,220 Q230,230 240,210" stroke="#2c3e50" stroke-width="5" fill="none" />
    
    <path d="M200,230 L210,200 L230,210 Z" fill="#f39c12" />
    
    <path d="M220,230 Q250,210 230,190" stroke="#8e44ad" stroke-width="6" fill="none" />
    
    <ellipse cx="230" cy="240" rx="60" ry="40" fill="#e67e22" opacity="0.6" />
    
    <path d="M170,190 C190,160 220,170 200,210 C180,240 220,260 240,230 C260,200 240,180 220,190" fill="#c0392b" />
    
    <path d="M200,240 C220,220 240,230 260,260 C280,290 250,300 220,280 C190,260 180,260 200,240" fill="#9b59b6" opacity="0.5" />
    
    <line x1="100" y1="320" x2="350" y2="320" stroke="#2c3e50" stroke-width="10" />
    
    <text x="200" y="360" font-family="Arial" font-size="24" font-weight="bold" text-anchor="middle" fill="#2c3e50">发际线总和我作队</text>
  </g>
</svg> 